<svg width="28" height="23" viewBox="0 0 28 23" fill="none" xmlns="http://www.w3.org/2000/svg">
<path d="M2.85294 0.6429C1.58088 0.937466 0.522059 1.9002 0.147059 3.10002C0.00735294 3.54546 0 3.78255 0 11.5203C0 19.2581 0.00735294 19.4952 0.147059 19.9406C0.529412 21.162 1.58088 22.1031 2.88235 22.4049C3.57353 22.563 23.9265 22.563 24.6176 22.4049C25.9191 22.1031 26.9706 21.162 27.3529 19.9406C27.4926 19.4952 27.5 19.2581 27.5 11.5203C27.5 3.78255 27.4926 3.54546 27.3529 3.10002C26.9706 1.87864 25.9265 0.937466 24.6176 0.635715C23.9485 0.48484 3.50735 0.48484 2.85294 0.6429ZM24.8529 1.86427C25.7132 2.26661 26.2647 2.99943 26.3971 3.91187C26.4853 4.51537 26.4853 18.5252 26.3971 19.1287C26.2647 20.0412 25.7132 20.774 24.8529 21.1763L24.375 21.3991H13.75H3.125L2.64706 21.1763C1.78676 20.774 1.23529 20.0412 1.10294 19.1287C1.01471 18.5252 1.01471 4.51537 1.10294 3.91187C1.25735 2.827 2.08088 1.92893 3.13971 1.68466C3.30147 1.64874 7.95588 1.62718 13.8971 1.62718L24.375 1.64155L24.8529 1.86427Z" fill="#6E8AC6"/>
<path d="M17.6379 5.55255C17.3292 5.6762 17.0499 5.99623 16.9617 6.32353L16.8882 6.63628H16.3957C15.7269 6.63628 15.4109 6.73811 15.1463 7.04359L14.9184 7.29816V12.2077C14.9184 17.7427 14.8817 17.4081 15.477 17.6991C15.771 17.8372 15.9033 17.8445 18.6154 17.8227C21.3496 17.8009 21.4598 17.7936 21.6583 17.6481C22.136 17.299 22.1213 17.4954 22.1213 12.2368C22.1213 7.72728 22.114 7.45817 21.9817 7.21815C21.7685 6.82539 21.4598 6.68719 20.7101 6.65083C20.1295 6.62173 20.0634 6.60719 20.0634 6.47627C20.0634 6.40353 19.9972 6.21443 19.9164 6.06169C19.6959 5.63256 19.299 5.47254 18.4758 5.47982C18.1156 5.47982 17.7408 5.51618 17.6379 5.55255ZM18.9609 7.21815V7.88002L18.5052 7.8582L18.0421 7.83638L18.0201 7.19633L17.998 6.56355H18.4831H18.9609V7.21815ZM16.9396 7.9964C17.0058 8.33825 17.2189 8.64373 17.5056 8.78919C17.682 8.87647 17.9172 8.89829 18.6081 8.87647L19.4901 8.85465L19.74 8.58554C19.8943 8.41098 20.0046 8.20732 20.034 8.01822L20.0854 7.72728H20.5484H21.0188V12.2368V16.7462H18.4831H15.9474V12.2368V7.72728H16.4178H16.8882L16.9396 7.9964Z" fill="#6E8AC6"/>
<path d="M16.8664 9.9463C16.6459 10.1645 16.6312 10.4118 16.837 10.6664L16.984 10.8555H18.4907C19.8946 10.8555 19.9975 10.8482 20.1371 10.71C20.3576 10.4918 20.3356 10.1063 20.093 9.91721C19.9093 9.77174 19.799 9.76447 18.4687 9.76447C17.0501 9.76447 17.0428 9.76447 16.8664 9.9463Z" fill="#6E8AC6"/>
<path d="M16.8664 12.1299C16.6459 12.3481 16.6312 12.5954 16.837 12.85L16.984 13.0391H18.4907C19.8946 13.0391 19.9975 13.0318 20.1371 12.8936C20.3576 12.6754 20.3356 12.2899 20.093 12.1008C19.9093 11.9553 19.799 11.9481 18.4687 11.9481C17.0501 11.9481 17.0428 11.9481 16.8664 12.1299Z" fill="#6E8AC6"/>
<path d="M16.8664 14.3096C16.6459 14.5278 16.6312 14.7751 16.837 15.0296L16.984 15.2188H18.4907C19.8946 15.2188 19.9975 15.2115 20.1371 15.0733C20.3576 14.8551 20.3356 14.4696 20.093 14.2805C19.9093 14.135 19.799 14.1277 18.4687 14.1277C17.0501 14.1277 17.0428 14.1277 16.8664 14.3096Z" fill="#6E8AC6"/>
<path d="M8.03521 6.42812C7.72651 6.57359 7.42516 7.01726 7.42516 7.31547C7.42516 7.41729 7.33697 7.43911 6.85922 7.43911C6.08748 7.44639 5.71263 7.6064 5.51419 8.03553C5.38189 8.33374 5.36719 8.53739 5.36719 11.6577C5.36719 14.7561 5.38189 14.9889 5.50684 15.2725C5.77143 15.8471 5.74938 15.8398 9.0054 15.8398C11.6808 15.8398 11.8866 15.8326 12.0997 15.7016C12.2247 15.6289 12.3937 15.4616 12.4672 15.338C12.5995 15.1271 12.6069 14.9161 12.6069 11.6577C12.6069 8.3992 12.5995 8.18827 12.4672 7.97734C12.2467 7.6064 11.9527 7.48275 11.2324 7.45366C10.7106 7.42457 10.5856 7.40275 10.5856 7.30819C10.5856 7.24273 10.5195 7.05363 10.4313 6.88634C10.2108 6.42812 9.84329 6.27538 8.99805 6.27538C8.48355 6.27538 8.27775 6.30447 8.03521 6.42812ZM9.48314 7.98462V8.60285H9.0054H8.52765V7.98462V7.36638H9.0054H9.48314V7.98462ZM7.45456 8.80651C7.50601 9.14108 7.71916 9.43201 8.01316 9.58475C8.30715 9.73749 9.70364 9.73749 9.99764 9.58475C10.2916 9.43201 10.4901 9.15563 10.5489 8.82105L10.6003 8.53012H11.0707H11.5411V11.6577V14.7852H9.0054H6.46968V11.6577V8.53012H6.94007H7.40311L7.45456 8.80651Z" fill="#6E8AC6"/>
<path d="M7.3958 10.8625C7.15325 11.0516 7.1312 11.4371 7.3517 11.6553C7.49134 11.7935 7.59424 11.8008 9.00543 11.8008C10.4166 11.8008 10.5195 11.7935 10.6592 11.6553C10.865 11.4517 10.8503 11.1098 10.6224 10.8916C10.446 10.7098 10.4387 10.7098 9.02013 10.7098C7.68979 10.7098 7.57954 10.7171 7.3958 10.8625Z" fill="#6E8AC6"/>
<path d="M7.3517 12.8201C7.1312 13.0383 7.15325 13.4238 7.3958 13.6129C7.57954 13.7584 7.68979 13.7656 9.02013 13.7656C10.4387 13.7656 10.446 13.7656 10.6224 13.5838C10.8576 13.3583 10.865 13.0456 10.6371 12.8346C10.4754 12.6819 10.4019 12.6746 8.98338 12.6746C7.59424 12.6746 7.49134 12.6819 7.3517 12.8201Z" fill="#6E8AC6"/>
</svg>
