<svg width="51" height="44" viewBox="0 0 51 44" fill="none" xmlns="http://www.w3.org/2000/svg">
<path d="M49.4074 37.5556C49.4074 38.7343 48.9533 39.8648 48.1451 40.6982C47.3369 41.5317 46.2407 42 45.0976 42H6.30976C5.16674 42 4.07054 41.5317 3.2623 40.6982C2.45406 39.8648 2 38.7343 2 37.5556V13.1111C2 11.9324 2.45406 10.8019 3.2623 9.96841C4.07054 9.13492 5.16674 8.66667 6.30976 8.66667H14.9293L19.2391 2H32.1683L36.4781 8.66667H45.0976C46.2407 8.66667 47.3369 9.13492 48.1451 9.96841C48.9533 10.8019 49.4074 11.9324 49.4074 13.1111V37.5556Z" stroke="#00AAFF" stroke-width="2.09756" stroke-linecap="round" stroke-linejoin="round"/>
<path d="M25.7037 33.1111C30.4641 33.1111 34.3232 29.1314 34.3232 24.2222C34.3232 19.313 30.4641 15.3333 25.7037 15.3333C20.9433 15.3333 17.0842 19.313 17.0842 24.2222C17.0842 29.1314 20.9433 33.1111 25.7037 33.1111Z" stroke="#00AAFF" stroke-width="2.09756" stroke-linecap="round" stroke-linejoin="round"/>
</svg>
