<svg width="27" height="23" viewBox="0 0 27 23" fill="none" xmlns="http://www.w3.org/2000/svg">
<mask id="path-1-inside-1_7824_23198" fill="white">
<path fill-rule="evenodd" clip-rule="evenodd" d="M13.3236 1.05604C13.275 1.10381 13.2353 5.79465 13.2353 11.48C13.2353 20.5094 13.2604 21.8378 13.4338 21.9796C13.5923 22.1092 13.6725 22.1092 13.8309 21.9796C14.0043 21.8378 14.0294 20.5171 14.0294 11.5497C14.0294 3.73783 13.9914 1.24475 13.8706 1.1256C13.6948 0.952296 13.4591 0.922281 13.3236 1.05604ZM8.86765 3.06523C7.33354 3.21387 6.66331 3.39579 5.91724 3.86612C5.14297 4.35406 4.6031 5.10444 4.02538 6.4961L3.58663 7.55315L2.04909 7.51126C0.0412942 7.45658 0 7.48777 0 9.06004C0 10.4494 0.0935735 10.559 1.37541 10.6707C1.87716 10.7144 2.31207 10.7742 2.34185 10.8035C2.3715 10.8329 2.21572 11.1371 1.99549 11.4794C1.24438 12.6472 1.19118 13.0547 1.19118 17.6378V21.8036L1.5079 22.0969C1.81204 22.3787 1.90363 22.3887 3.81971 22.3481C6.30304 22.2955 6.25606 22.3273 6.35122 20.639L6.41912 19.4348L8.77685 19.3992L11.1346 19.3635L11.093 19.0077L11.0515 18.6518L6.69521 18.6174C3.61178 18.593 2.28441 18.5384 2.15246 18.4304C2.00091 18.3064 1.97404 17.7994 2.00872 15.7243C2.05729 12.8212 2.1379 12.5225 3.24953 11.1264C3.57326 10.7197 3.83824 10.322 3.83824 10.2424C3.83824 9.98346 3.18335 9.84305 1.97669 9.84305H0.794118V9.04712V8.25107L1.97153 8.29674C2.88344 8.33198 3.20969 8.39645 3.41762 8.58215C3.89872 9.01163 4.09831 8.81875 4.54963 7.48842C5.08222 5.91876 5.562 5.10835 6.24984 4.61715C6.95144 4.11602 7.46682 3.988 9.33737 3.85032C10.9286 3.73327 11.1754 3.64674 11.0958 3.23397C11.0397 2.94217 10.5332 2.9038 8.86765 3.06523ZM16.2426 3.00625C16.1901 3.05806 16.1471 3.23645 16.1471 3.40258C16.1471 3.75924 16.2675 3.79277 17.9313 3.90005C19.4588 3.99857 19.9766 4.14199 20.6746 4.6606C21.3009 5.12584 22.05 6.44324 22.4644 7.80815C22.7476 8.74071 23.0219 8.96438 23.4324 8.59781C23.6602 8.39449 23.9551 8.33315 24.8773 8.2974C25.9989 8.25394 26.0387 8.26229 26.1173 8.5584C26.1619 8.72661 26.1627 9.08458 26.1191 9.35367L26.0396 9.84305L24.8985 9.8561C23.6859 9.86993 23.1427 9.9648 23.0715 10.1753C23.0474 10.2464 23.2725 10.6259 23.5718 11.0186C24.779 12.6027 24.8109 12.7177 24.8588 15.6592C24.8933 17.7887 24.8665 18.3065 24.7152 18.4305C24.584 18.5378 23.2994 18.593 20.3711 18.6174L16.2132 18.6518L16.1717 19.0075L16.1301 19.3631L18.2893 19.399L20.4485 19.4348L20.5568 20.6746C20.6256 21.4622 20.7359 21.9857 20.859 22.1101C21.0105 22.2632 21.4924 22.3149 23.0686 22.3472C25.0581 22.3881 25.0882 22.3844 25.3869 22.071L25.6896 21.7533L25.6499 17.2663L25.6203 13.9169C25.6137 13.1702 25.4217 12.4369 25.0614 11.7828L24.5126 10.7863L24.9953 10.7076C25.2608 10.6643 25.697 10.6283 25.9646 10.6275C26.7045 10.6253 27 10.1779 27 9.06004C27 8.36004 26.9424 8.10961 26.7166 7.82655L26.4333 7.47133L24.8524 7.51152L23.2715 7.55172L22.9024 6.61616C21.8167 3.86481 20.9912 3.33994 17.2022 2.99137C16.727 2.94765 16.2953 2.95444 16.2426 3.00625ZM8.36179 4.8912C7.23137 5.03919 6.49721 5.48184 6.05607 6.28103C5.70918 6.90939 5.27175 8.29857 5.04953 9.47699L4.93399 10.0898L5.61031 10.1692C5.98235 10.2129 7.35882 10.2308 8.66912 10.209L11.0515 10.1693V7.49403V4.81877L10.125 4.80011C9.61544 4.78993 8.82199 4.83091 8.36179 4.8912ZM16.1774 7.44196L16.2132 10.1693L19.0257 10.2045L21.8382 10.2398V9.83874C21.8382 9.11263 21.423 7.57494 20.976 6.64565C20.299 5.2382 19.773 4.96467 17.4347 4.80363L16.1416 4.71463L16.1774 7.44196ZM4.13325 12.0184C3.84366 12.1333 3.57353 12.8074 3.57353 13.4154C3.57353 13.8529 3.65929 14.0996 3.91619 14.4005L4.25885 14.8021L5.73604 14.7867C7.62565 14.7668 7.99491 14.6908 8.04997 14.3098C8.10371 13.9374 7.64299 13.1927 7.14071 12.8401C6.69534 12.5274 4.97978 11.9262 4.5761 11.9414C4.42509 11.947 4.22576 11.9817 4.13325 12.0184ZM21.64 12.2587C20.535 12.6432 20.1801 12.8857 19.6585 13.6127C18.9802 14.5583 19.3397 14.7607 21.7449 14.7867C23.0895 14.8012 23.1926 14.7835 23.4933 14.487C24.0664 13.922 24.0894 12.952 23.5457 12.2705C23.2048 11.8431 22.8412 11.8409 21.64 12.2587Z"/>
</mask>
<path fill-rule="evenodd" clip-rule="evenodd" d="M13.3236 1.05604C13.275 1.10381 13.2353 5.79465 13.2353 11.48C13.2353 20.5094 13.2604 21.8378 13.4338 21.9796C13.5923 22.1092 13.6725 22.1092 13.8309 21.9796C14.0043 21.8378 14.0294 20.5171 14.0294 11.5497C14.0294 3.73783 13.9914 1.24475 13.8706 1.1256C13.6948 0.952296 13.4591 0.922281 13.3236 1.05604ZM8.86765 3.06523C7.33354 3.21387 6.66331 3.39579 5.91724 3.86612C5.14297 4.35406 4.6031 5.10444 4.02538 6.4961L3.58663 7.55315L2.04909 7.51126C0.0412942 7.45658 0 7.48777 0 9.06004C0 10.4494 0.0935735 10.559 1.37541 10.6707C1.87716 10.7144 2.31207 10.7742 2.34185 10.8035C2.3715 10.8329 2.21572 11.1371 1.99549 11.4794C1.24438 12.6472 1.19118 13.0547 1.19118 17.6378V21.8036L1.5079 22.0969C1.81204 22.3787 1.90363 22.3887 3.81971 22.3481C6.30304 22.2955 6.25606 22.3273 6.35122 20.639L6.41912 19.4348L8.77685 19.3992L11.1346 19.3635L11.093 19.0077L11.0515 18.6518L6.69521 18.6174C3.61178 18.593 2.28441 18.5384 2.15246 18.4304C2.00091 18.3064 1.97404 17.7994 2.00872 15.7243C2.05729 12.8212 2.1379 12.5225 3.24953 11.1264C3.57326 10.7197 3.83824 10.322 3.83824 10.2424C3.83824 9.98346 3.18335 9.84305 1.97669 9.84305H0.794118V9.04712V8.25107L1.97153 8.29674C2.88344 8.33198 3.20969 8.39645 3.41762 8.58215C3.89872 9.01163 4.09831 8.81875 4.54963 7.48842C5.08222 5.91876 5.562 5.10835 6.24984 4.61715C6.95144 4.11602 7.46682 3.988 9.33737 3.85032C10.9286 3.73327 11.1754 3.64674 11.0958 3.23397C11.0397 2.94217 10.5332 2.9038 8.86765 3.06523ZM16.2426 3.00625C16.1901 3.05806 16.1471 3.23645 16.1471 3.40258C16.1471 3.75924 16.2675 3.79277 17.9313 3.90005C19.4588 3.99857 19.9766 4.14199 20.6746 4.6606C21.3009 5.12584 22.05 6.44324 22.4644 7.80815C22.7476 8.74071 23.0219 8.96438 23.4324 8.59781C23.6602 8.39449 23.9551 8.33315 24.8773 8.2974C25.9989 8.25394 26.0387 8.26229 26.1173 8.5584C26.1619 8.72661 26.1627 9.08458 26.1191 9.35367L26.0396 9.84305L24.8985 9.8561C23.6859 9.86993 23.1427 9.9648 23.0715 10.1753C23.0474 10.2464 23.2725 10.6259 23.5718 11.0186C24.779 12.6027 24.8109 12.7177 24.8588 15.6592C24.8933 17.7887 24.8665 18.3065 24.7152 18.4305C24.584 18.5378 23.2994 18.593 20.3711 18.6174L16.2132 18.6518L16.1717 19.0075L16.1301 19.3631L18.2893 19.399L20.4485 19.4348L20.5568 20.6746C20.6256 21.4622 20.7359 21.9857 20.859 22.1101C21.0105 22.2632 21.4924 22.3149 23.0686 22.3472C25.0581 22.3881 25.0882 22.3844 25.3869 22.071L25.6896 21.7533L25.6499 17.2663L25.6203 13.9169C25.6137 13.1702 25.4217 12.4369 25.0614 11.7828L24.5126 10.7863L24.9953 10.7076C25.2608 10.6643 25.697 10.6283 25.9646 10.6275C26.7045 10.6253 27 10.1779 27 9.06004C27 8.36004 26.9424 8.10961 26.7166 7.82655L26.4333 7.47133L24.8524 7.51152L23.2715 7.55172L22.9024 6.61616C21.8167 3.86481 20.9912 3.33994 17.2022 2.99137C16.727 2.94765 16.2953 2.95444 16.2426 3.00625ZM8.36179 4.8912C7.23137 5.03919 6.49721 5.48184 6.05607 6.28103C5.70918 6.90939 5.27175 8.29857 5.04953 9.47699L4.93399 10.0898L5.61031 10.1692C5.98235 10.2129 7.35882 10.2308 8.66912 10.209L11.0515 10.1693V7.49403V4.81877L10.125 4.80011C9.61544 4.78993 8.82199 4.83091 8.36179 4.8912ZM16.1774 7.44196L16.2132 10.1693L19.0257 10.2045L21.8382 10.2398V9.83874C21.8382 9.11263 21.423 7.57494 20.976 6.64565C20.299 5.2382 19.773 4.96467 17.4347 4.80363L16.1416 4.71463L16.1774 7.44196ZM4.13325 12.0184C3.84366 12.1333 3.57353 12.8074 3.57353 13.4154C3.57353 13.8529 3.65929 14.0996 3.91619 14.4005L4.25885 14.8021L5.73604 14.7867C7.62565 14.7668 7.99491 14.6908 8.04997 14.3098C8.10371 13.9374 7.64299 13.1927 7.14071 12.8401C6.69534 12.5274 4.97978 11.9262 4.5761 11.9414C4.42509 11.947 4.22576 11.9817 4.13325 12.0184ZM21.64 12.2587C20.535 12.6432 20.1801 12.8857 19.6585 13.6127C18.9802 14.5583 19.3397 14.7607 21.7449 14.7867C23.0895 14.8012 23.1926 14.7835 23.4933 14.487C24.0664 13.922 24.0894 12.952 23.5457 12.2705C23.2048 11.8431 22.8412 11.8409 21.64 12.2587Z" fill="#6E8AC6" stroke="#6E8AC6" stroke-width="4" mask="url(#path-1-inside-1_7824_23198)"/>
</svg>
