<svg width="27" height="23" viewBox="0 0 27 23" fill="none" xmlns="http://www.w3.org/2000/svg">
<path d="M23.9519 2.83661C23.3442 2.23701 22.6227 1.76137 21.8286 1.43686C21.0345 1.11234 20.1833 0.945312 19.3237 0.945312C18.4642 0.945312 17.613 1.11234 16.8189 1.43686C16.0248 1.76137 15.3033 2.23701 14.6956 2.83661L13.4345 4.0804L12.1733 2.83661C10.9459 1.62603 9.28107 0.94594 7.54518 0.94594C5.80929 0.94594 4.1445 1.62603 2.91704 2.83661C1.68958 4.04718 1 5.68907 1 7.40108C1 9.11309 1.68958 10.755 2.91704 11.9656L12.0301 20.9532C12.8088 21.7213 14.0601 21.7213 14.8388 20.9532L23.9519 11.9656C24.5598 11.3662 25.0421 10.6547 25.3712 9.87148C25.7002 9.08829 25.8696 8.24884 25.8696 7.40108C25.8696 6.55333 25.7002 5.71388 25.3712 4.93069C25.0421 4.1475 24.5598 3.43592 23.9519 2.83661Z" stroke="#6E8AC6" stroke-width="1.5" stroke-linecap="round" stroke-linejoin="round"/>
</svg>
