<svg width="143" height="28" viewBox="0 0 143 28" fill="none" xmlns="http://www.w3.org/2000/svg">
<rect x="0.5" y="0.5" width="141.333" height="27" rx="4.5" stroke="white"/>
<path d="M105 0.777344H137.556C139.765 0.777344 141.556 2.5682 141.556 4.77734V23.2218C141.556 25.4309 139.765 27.2218 137.556 27.2218H105V0.777344Z" fill="#EB5C01"/>
<path d="M18.6699 20.9377L17.6255 17.6147H12.8118L11.7675 20.9377H8.82422L13.5809 7.23736H16.9514L21.7176 20.9377H18.6699ZM15.1854 9.8578L13.429 15.469H17.0084L15.2519 9.8578H15.1854Z" fill="white"/>
<path d="M25.7052 7.23736V15.8108C25.7052 16.7032 25.9552 17.4121 26.4552 17.9375C26.9616 18.4565 27.6705 18.716 28.582 18.716C29.4871 18.716 30.1897 18.4565 30.6897 17.9375C31.1961 17.4121 31.4493 16.7032 31.4493 15.8108V7.23736H34.3166V16.0956C34.3166 17.6147 33.7944 18.8426 32.75 19.7794C31.712 20.7099 30.3226 21.1751 28.582 21.1751C26.835 21.1751 25.4393 20.7099 24.395 19.7794C23.3569 18.8426 22.8379 17.6147 22.8379 16.0956V7.23736H25.7052Z" fill="white"/>
<path d="M42.7476 20.9377H39.8803V9.60145H35.9211V7.23736H46.7162V9.60145H42.7476V20.9377Z" fill="white"/>
<path d="M48.8904 8.90837C50.0804 7.63612 51.6912 7 53.723 7C55.7548 7 57.3625 7.63612 58.5462 8.90837C59.7361 10.1806 60.3311 11.9086 60.3311 14.0923C60.3311 16.2697 59.7361 17.9945 58.5462 19.2667C57.3562 20.539 55.7485 21.1751 53.723 21.1751C51.6912 21.1751 50.0804 20.539 48.8904 19.2667C47.7068 17.9945 47.115 16.2697 47.115 14.0923C47.115 11.9086 47.7068 10.1806 48.8904 8.90837ZM56.4004 10.6648C55.7358 9.81666 54.8434 9.39258 53.723 9.39258C52.6027 9.39258 51.7071 9.81666 51.0361 10.6648C50.3715 11.513 50.0392 12.6555 50.0392 14.0923C50.0392 15.5228 50.3715 16.6621 51.0361 17.5103C51.7007 18.3521 52.5964 18.773 53.723 18.773C54.8434 18.773 55.7358 18.3521 56.4004 17.5103C57.0651 16.6621 57.3974 15.5228 57.3974 14.0923C57.3974 12.6555 57.0651 11.513 56.4004 10.6648Z" fill="white"/>
<path d="M68.895 20.9377H65.4391L60.8343 7.23736H64.0434L67.1765 17.985H67.243L70.3761 7.23736H73.4998L68.895 20.9377Z" fill="white"/>
<path d="M77.7722 20.9377H74.9049V7.23736H77.7722V20.9377Z" fill="white"/>
<path d="M88.9091 18.5641V20.9377H80.0509V7.23736H82.9182V18.5641H88.9091Z" fill="white"/>
<path d="M99.4669 18.5641V20.9377H90.6086V7.23736H93.4759V18.5641H99.4669Z" fill="white"/>
<path d="M112.895 9.24067V13.6081H115.363C116.085 13.6081 116.645 13.415 117.044 13.0289C117.449 12.6428 117.651 12.108 117.651 11.4244C117.651 10.7598 117.442 10.2312 117.025 9.83881C116.607 9.44005 116.044 9.24067 115.335 9.24067H112.895ZM112.895 15.6873V20.7004H110.027V7H115.639C117.202 7 118.417 7.38927 119.284 8.16781C120.158 8.94001 120.595 10.0065 120.595 11.3674C120.595 12.2599 120.373 13.0574 119.93 13.76C119.493 14.4562 118.886 14.9563 118.107 15.2601L120.993 20.7004H117.746L115.192 15.6873H112.895Z" fill="white"/>
<path d="M125.351 7V15.5734C125.351 16.4659 125.601 17.1748 126.101 17.7001C126.608 18.2192 127.317 18.4787 128.228 18.4787C129.133 18.4787 129.836 18.2192 130.336 17.7001C130.842 17.1748 131.095 16.4659 131.095 15.5734V7H133.963V15.8582C133.963 17.3773 133.44 18.6053 132.396 19.542C131.358 20.4725 129.969 20.9377 128.228 20.9377C126.481 20.9377 125.085 20.4725 124.041 19.542C123.003 18.6053 122.484 17.3773 122.484 15.8582V7H125.351Z" fill="white"/>
</svg>
