<svg width="20" height="21" viewBox="0 0 20 21" fill="none" xmlns="http://www.w3.org/2000/svg">
<path d="M8.50536 0.982677C6.37738 1.32225 4.39671 2.33036 2.86347 3.84782C-0.252114 6.93581 -0.879596 11.3396 1.24839 15.2023L1.51029 15.6798L1.21565 17.4573C1.05742 18.4335 0.921006 19.3143 0.921006 19.4151C0.921006 19.8661 1.33569 20.3065 1.81039 20.3595C2.09413 20.3914 2.40514 20.3065 4.26576 19.6751L5.66805 19.1976L6.14821 19.3833C6.89573 19.6751 7.44137 19.8396 8.17798 19.9934C8.80546 20.1208 8.95824 20.1314 10.115 20.1314C11.2117 20.1314 11.4409 20.1208 11.932 20.0147C13.8908 19.6008 15.495 18.7413 16.8918 17.3617C19.4563 14.8415 20.4603 11.1592 19.4781 7.88024C18.4687 4.51635 15.4513 1.821 11.8501 1.05696C11.1517 0.913702 9.22014 0.86595 8.50536 0.982677ZM11.37 2.20832C12.9741 2.463 14.3764 3.12092 15.6914 4.24045C17.0991 5.43957 18.0376 7.00478 18.4469 8.82999C18.5505 9.29159 18.5669 9.52505 18.5669 10.5066C18.5669 11.4882 18.5505 11.7217 18.4469 12.1886C17.8467 14.8627 16.1934 16.985 13.809 18.147C11.4682 19.2825 8.60903 19.3196 6.28462 18.2478C6.03908 18.1364 5.76626 18.0409 5.6735 18.0409C5.5862 18.0409 4.76775 18.2903 3.86199 18.598C2.95078 18.9004 2.1978 19.1445 2.19234 19.1339C2.18143 19.1233 2.29601 18.3539 2.44879 17.4307C2.59611 16.5022 2.72161 15.6639 2.72161 15.5631C2.72161 15.441 2.63976 15.25 2.46516 14.9741C2.14323 14.4542 1.91407 13.9607 1.69035 13.3081C1.37934 12.3955 1.2975 11.9074 1.26476 10.7719C1.24293 9.88585 1.25384 9.64708 1.3466 9.10058C1.89224 6.02321 4.15118 3.53478 7.31587 2.52667C8.65268 2.0969 10.0059 1.99078 11.37 2.20832Z" fill="#6E8AC6"/>
</svg>
