<svg width="25" height="25" viewBox="0 0 25 25" fill="none" xmlns="http://www.w3.org/2000/svg">
<path d="M9.75092 7.24527C12.2472 4.73554 18.4892 9.12645 9.75092 14.773C1.01261 9.12645 7.25469 4.73704 9.75092 7.24527Z" fill="#6E8AC6"/>
<path d="M19.5018 10.2726C19.5051 12.347 18.8437 14.3679 17.6147 16.0391C17.6747 16.0841 17.7317 16.1321 17.7872 16.1861L23.5627 21.9616C23.8442 22.2429 24.0024 22.6245 24.0026 23.0225C24.0027 23.4204 23.8447 23.8021 23.5635 24.0836C23.2822 24.3651 22.9006 24.5233 22.5026 24.5234C22.1047 24.5236 21.723 24.3656 21.4415 24.0843L15.666 18.3088C15.6117 18.2552 15.5615 18.1975 15.516 18.1363H15.519C13.7515 19.433 11.5987 20.0963 9.40795 20.0192C7.2172 19.9421 5.11634 19.1291 3.44444 17.7113C1.77253 16.2936 0.627122 14.3538 0.193072 12.2051C-0.240977 10.0564 0.0616558 7.82412 1.05213 5.86854C2.0426 3.91296 3.66313 2.34818 5.65216 1.42673C7.6412 0.505291 9.8827 0.280948 12.0149 0.789912C14.1471 1.29888 16.0456 2.51145 17.404 4.23194C18.7624 5.95243 19.5014 8.08045 19.5018 10.2726ZM9.75092 18.5233C10.8344 18.5233 11.9073 18.3099 12.9084 17.8953C13.9094 17.4806 14.8189 16.8729 15.5851 16.1067C16.3513 15.3406 16.959 14.431 17.3736 13.43C17.7883 12.429 18.0017 11.3561 18.0017 10.2726C18.0017 9.18905 17.7883 8.11615 17.3736 7.11512C16.959 6.11409 16.3513 5.20453 15.5851 4.43838C14.8189 3.67222 13.9094 3.06448 12.9084 2.64984C11.9073 2.2352 10.8344 2.02178 9.75092 2.02178C7.56268 2.02178 5.46407 2.89106 3.91675 4.43838C2.36943 5.9857 1.50015 8.08431 1.50015 10.2726C1.50015 12.4608 2.36943 14.5594 3.91675 16.1067C5.46407 17.6541 7.56268 18.5233 9.75092 18.5233Z" fill="#6E8AC6"/>
</svg>
